<svg xmlns="http://www.w3.org/2000/svg" width="387" height="95" viewBox="0 0 387 95" fill="none"><path d="M127.928 30.7363C127.928 30.0722 127.85 29.4863 127.694 28.9785C127.538 28.4577 127.264 27.9889 126.873 27.5722C126.483 27.1556 125.936 26.7584 125.233 26.3808C124.53 26.0032 123.638 25.6191 122.557 25.2285C121.385 24.8118 120.324 24.3496 119.373 23.8418C118.423 23.3209 117.609 22.7285 116.932 22.0644C116.268 21.4004 115.754 20.6386 115.389 19.7793C115.025 18.9199 114.842 17.9368 114.842 16.83C114.842 15.7233 115.031 14.7011 115.409 13.7636C115.799 12.8261 116.346 12.0123 117.049 11.3222C117.765 10.6191 118.625 10.0722 119.627 9.68161C120.63 9.29099 121.75 9.09567 122.987 9.09567C124.836 9.09567 126.392 9.50583 127.655 10.3261C128.931 11.1334 129.894 12.1946 130.545 13.5097C131.196 14.8118 131.522 16.205 131.522 17.6894H127.928C127.928 16.6217 127.752 15.6777 127.401 14.8574C127.062 14.0241 126.528 13.373 125.799 12.9043C125.083 12.4225 124.146 12.1816 122.987 12.1816C121.945 12.1816 121.086 12.3834 120.409 12.7871C119.745 13.1907 119.25 13.7376 118.924 14.4277C118.612 15.1178 118.456 15.9056 118.456 16.791C118.456 17.3899 118.56 17.9368 118.768 18.4316C118.976 18.9134 119.295 19.3626 119.725 19.7793C120.168 20.1959 120.715 20.58 121.366 20.9316C122.03 21.2832 122.811 21.6217 123.709 21.9472C125.103 22.403 126.294 22.9108 127.284 23.4707C128.273 24.0306 129.081 24.6621 129.706 25.3652C130.331 26.0553 130.786 26.8431 131.073 27.7285C131.372 28.6009 131.522 29.5905 131.522 30.6972C131.522 31.8561 131.327 32.9043 130.936 33.8418C130.558 34.7793 130.005 35.58 129.276 36.2441C128.547 36.9082 127.668 37.4225 126.639 37.7871C125.61 38.1386 124.452 38.3144 123.163 38.3144C122.043 38.3144 120.942 38.1321 119.862 37.7675C118.794 37.403 117.824 36.8561 116.952 36.1269C116.079 35.3978 115.383 34.4993 114.862 33.4316C114.341 32.3509 114.081 31.1009 114.081 29.6816H117.674C117.674 30.6582 117.817 31.498 118.104 32.2011C118.39 32.8912 118.788 33.4642 119.295 33.9199C119.803 34.3756 120.383 34.7142 121.034 34.9355C121.698 35.1438 122.407 35.248 123.163 35.248C124.204 35.248 125.077 35.0657 125.78 34.7011C126.496 34.3366 127.03 33.8157 127.381 33.1386C127.746 32.4616 127.928 31.6608 127.928 30.7363ZM139.217 20.8535V46.0488H135.76V16.791H138.905L139.217 20.8535ZM151.034 26.4004V28.373C151.034 30.0397 150.877 31.498 150.565 32.748C150.265 33.985 149.816 35.0202 149.217 35.8535C148.631 36.6738 147.909 37.2923 147.049 37.709C146.19 38.1126 145.207 38.3144 144.1 38.3144C142.993 38.3144 142.03 38.1061 141.209 37.6894C140.402 37.2597 139.719 36.6412 139.159 35.834C138.612 35.0267 138.176 34.0566 137.85 32.9238C137.538 31.778 137.323 30.4954 137.206 29.0761V26.0683C137.323 24.5709 137.538 23.2298 137.85 22.0449C138.163 20.847 138.592 19.8313 139.139 18.998C139.699 18.1517 140.383 17.5071 141.19 17.0644C142.01 16.6217 142.967 16.4004 144.061 16.4004C145.194 16.4004 146.19 16.5957 147.049 16.9863C147.922 17.3769 148.651 17.9824 149.237 18.8027C149.836 19.61 150.285 20.6452 150.584 21.9082C150.884 23.1582 151.034 24.6556 151.034 26.4004ZM147.577 28.373V26.4004C147.577 25.2285 147.485 24.2063 147.303 23.334C147.134 22.4616 146.86 21.7389 146.483 21.166C146.105 20.5931 145.63 20.1634 145.057 19.8769C144.484 19.5905 143.794 19.4472 142.987 19.4472C142.297 19.4472 141.685 19.5905 141.151 19.8769C140.63 20.1634 140.181 20.554 139.803 21.0488C139.426 21.5306 139.113 22.084 138.866 22.709C138.618 23.3209 138.436 23.959 138.319 24.623V30.541C138.54 31.3743 138.833 32.1621 139.198 32.9043C139.562 33.6334 140.051 34.2259 140.663 34.6816C141.288 35.1373 142.075 35.3652 143.026 35.3652C143.82 35.3652 144.504 35.222 145.077 34.9355C145.65 34.6491 146.118 34.2194 146.483 33.6465C146.86 33.0605 147.134 32.3313 147.303 31.459C147.485 30.5735 147.577 29.5449 147.577 28.373ZM158.944 20.1113V37.9238H155.487V16.791H158.827L158.944 20.1113ZM164.198 16.6738L164.217 20.0332C163.931 19.9681 163.67 19.929 163.436 19.916C163.215 19.8899 162.954 19.8769 162.655 19.8769C162.004 19.8769 161.431 20.0071 160.936 20.2675C160.454 20.528 160.038 20.8925 159.686 21.3613C159.334 21.83 159.054 22.3899 158.846 23.041C158.638 23.679 158.495 24.3821 158.416 25.1504L157.518 25.7363C157.518 24.4603 157.616 23.2623 157.811 22.1425C158.019 21.0228 158.338 20.0332 158.768 19.1738C159.198 18.3014 159.745 17.6243 160.409 17.1425C161.086 16.6478 161.893 16.4004 162.831 16.4004C163.039 16.4004 163.293 16.4329 163.592 16.498C163.905 16.5501 164.107 16.6087 164.198 16.6738ZM177.245 34.3105V22.8457C177.245 22.0123 177.114 21.3418 176.854 20.834C176.607 20.3261 176.229 19.955 175.721 19.7207C175.226 19.4863 174.601 19.3691 173.846 19.3691C173.117 19.3691 172.485 19.5188 171.952 19.8183C171.431 20.1178 171.027 20.5149 170.741 21.0097C170.467 21.5045 170.331 22.0514 170.331 22.6504H166.873C166.873 21.8952 167.036 21.1465 167.362 20.4043C167.7 19.6621 168.182 18.9915 168.807 18.3925C169.432 17.7806 170.181 17.2988 171.053 16.9472C171.939 16.5827 172.928 16.4004 174.022 16.4004C175.324 16.4004 176.476 16.6152 177.479 17.0449C178.482 17.4616 179.269 18.1452 179.842 19.0957C180.415 20.0462 180.702 21.3092 180.702 22.8847V33.3144C180.702 34.0175 180.754 34.7662 180.858 35.5605C180.975 36.3548 181.138 37.0384 181.346 37.6113V37.9238H177.772C177.603 37.5071 177.472 36.9537 177.381 36.2636C177.29 35.5605 177.245 34.9095 177.245 34.3105ZM177.791 25.1113L177.831 27.6504H175.428C174.608 27.6504 173.859 27.7415 173.182 27.9238C172.518 28.1061 171.945 28.373 171.463 28.7246C170.982 29.0631 170.61 29.4863 170.35 29.9941C170.103 30.5019 169.979 31.0813 169.979 31.7324C169.979 32.5787 170.096 33.2558 170.331 33.7636C170.565 34.2584 170.916 34.6165 171.385 34.8379C171.854 35.0592 172.446 35.1699 173.163 35.1699C174.035 35.1699 174.803 34.9681 175.467 34.5644C176.131 34.1608 176.646 33.6725 177.01 33.0996C177.388 32.5267 177.564 31.9928 177.538 31.498L178.299 33.1191C178.247 33.6269 178.078 34.1803 177.791 34.7793C177.518 35.3652 177.134 35.9316 176.639 36.4785C176.144 37.0123 175.558 37.455 174.881 37.8066C174.217 38.1452 173.469 38.3144 172.635 38.3144C171.411 38.3144 170.337 38.08 169.413 37.6113C168.501 37.1425 167.791 36.4524 167.284 35.541C166.776 34.6295 166.522 33.5032 166.522 32.1621C166.522 31.1465 166.698 30.209 167.049 29.3496C167.401 28.4902 167.922 27.748 168.612 27.123C169.302 26.485 170.168 25.9902 171.209 25.6386C172.264 25.2871 173.482 25.1113 174.862 25.1113H177.791ZM190.663 35.7363L195.37 16.791H199.041L192.069 41.1855C191.9 41.7063 191.672 42.2662 191.385 42.8652C191.112 43.4772 190.76 44.0566 190.331 44.6035C189.901 45.1504 189.386 45.5931 188.788 45.9316C188.189 46.2832 187.485 46.459 186.678 46.459C186.431 46.459 186.112 46.4199 185.721 46.3418C185.344 46.2636 185.07 46.1985 184.901 46.1465V43.2168C184.979 43.2298 185.103 43.2428 185.272 43.2558C185.441 43.2819 185.565 43.2949 185.643 43.2949C186.32 43.2949 186.893 43.1842 187.362 42.9629C187.844 42.7545 188.254 42.3965 188.592 41.8886C188.931 41.3938 189.217 40.7103 189.452 39.8379L190.663 35.7363ZM187.616 16.791L191.815 33.1972L192.713 37.0058L190.252 38.334L183.846 16.791H187.616ZM215.682 9.4863V37.9238H212.088V9.4863H215.682ZM225.272 22.2793V25.3652H214.998V22.2793H225.272ZM226.893 9.4863V12.5722H214.998V9.4863H226.893ZM229.725 28.373V26.3613C229.725 24.7207 229.933 23.2819 230.35 22.0449C230.767 20.7949 231.346 19.7532 232.088 18.9199C232.831 18.0866 233.696 17.4616 234.686 17.0449C235.676 16.6152 236.737 16.4004 237.87 16.4004C239.028 16.4004 240.103 16.6152 241.092 17.0449C242.082 17.4616 242.948 18.0866 243.69 18.9199C244.445 19.7532 245.031 20.7949 245.448 22.0449C245.864 23.2819 246.073 24.7207 246.073 26.3613V28.373C246.073 30.0136 245.864 31.459 245.448 32.709C245.031 33.9459 244.452 34.9811 243.709 35.8144C242.967 36.6478 242.101 37.2728 241.112 37.6894C240.122 38.1061 239.054 38.3144 237.909 38.3144C236.763 38.3144 235.695 38.1061 234.706 37.6894C233.716 37.2728 232.844 36.6478 232.088 35.8144C231.346 34.9811 230.767 33.9459 230.35 32.709C229.933 31.459 229.725 30.0136 229.725 28.373ZM233.182 26.3613V28.373C233.182 29.5319 233.299 30.5475 233.534 31.4199C233.768 32.2923 234.1 33.0215 234.53 33.6074C234.959 34.1933 235.461 34.636 236.034 34.9355C236.607 35.222 237.232 35.3652 237.909 35.3652C238.69 35.3652 239.373 35.222 239.959 34.9355C240.558 34.636 241.053 34.1933 241.444 33.6074C241.834 33.0215 242.127 32.2923 242.323 31.4199C242.518 30.5475 242.616 29.5319 242.616 28.373V26.3613C242.616 25.2024 242.498 24.1933 242.264 23.334C242.03 22.4616 241.698 21.7324 241.268 21.1465C240.838 20.5475 240.331 20.1048 239.745 19.8183C239.172 19.5188 238.547 19.3691 237.87 19.3691C237.206 19.3691 236.587 19.5188 236.014 19.8183C235.441 20.1048 234.94 20.5475 234.51 21.1465C234.094 21.7324 233.768 22.4616 233.534 23.334C233.299 24.1933 233.182 25.2024 233.182 26.3613ZM260.877 34.3105V22.8457C260.877 22.0123 260.747 21.3418 260.487 20.834C260.239 20.3261 259.862 19.955 259.354 19.7207C258.859 19.4863 258.234 19.3691 257.479 19.3691C256.75 19.3691 256.118 19.5188 255.584 19.8183C255.064 20.1178 254.66 20.5149 254.373 21.0097C254.1 21.5045 253.963 22.0514 253.963 22.6504H250.506C250.506 21.8952 250.669 21.1465 250.995 20.4043C251.333 19.6621 251.815 18.9915 252.44 18.3925C253.065 17.7806 253.814 17.2988 254.686 16.9472C255.571 16.5827 256.561 16.4004 257.655 16.4004C258.957 16.4004 260.109 16.6152 261.112 17.0449C262.114 17.4616 262.902 18.1452 263.475 19.0957C264.048 20.0462 264.334 21.3092 264.334 22.8847V33.3144C264.334 34.0175 264.386 34.7662 264.491 35.5605C264.608 36.3548 264.771 37.0384 264.979 37.6113V37.9238H261.405C261.235 37.5071 261.105 36.9537 261.014 36.2636C260.923 35.5605 260.877 34.9095 260.877 34.3105ZM261.424 25.1113L261.463 27.6504H259.061C258.241 27.6504 257.492 27.7415 256.815 27.9238C256.151 28.1061 255.578 28.373 255.096 28.7246C254.614 29.0631 254.243 29.4863 253.983 29.9941C253.735 30.5019 253.612 31.0813 253.612 31.7324C253.612 32.5787 253.729 33.2558 253.963 33.7636C254.198 34.2584 254.549 34.6165 255.018 34.8379C255.487 35.0592 256.079 35.1699 256.795 35.1699C257.668 35.1699 258.436 34.9681 259.1 34.5644C259.764 34.1608 260.278 33.6725 260.643 33.0996C261.021 32.5267 261.196 31.9928 261.17 31.498L261.932 33.1191C261.88 33.6269 261.711 34.1803 261.424 34.7793C261.151 35.3652 260.767 35.9316 260.272 36.4785C259.777 37.0123 259.191 37.455 258.514 37.8066C257.85 38.1452 257.101 38.3144 256.268 38.3144C255.044 38.3144 253.97 38.08 253.045 37.6113C252.134 37.1425 251.424 36.4524 250.916 35.541C250.409 34.6295 250.155 33.5032 250.155 32.1621C250.155 31.1465 250.331 30.209 250.682 29.3496C251.034 28.4902 251.554 27.748 252.245 27.123C252.935 26.485 253.801 25.9902 254.842 25.6386C255.897 25.2871 257.114 25.1113 258.495 25.1113H261.424ZM273.163 20.9902V37.9238H269.725V16.791H272.967L273.163 20.9902ZM272.459 26.5566L270.858 26.498C270.845 25.0527 270.988 23.7181 271.288 22.4941C271.587 21.2571 272.036 20.1829 272.635 19.2715C273.247 18.36 274.009 17.6569 274.92 17.1621C275.845 16.6543 276.919 16.4004 278.143 16.4004C278.95 16.4004 279.699 16.5436 280.389 16.83C281.092 17.1035 281.704 17.5397 282.225 18.1386C282.746 18.7376 283.15 19.5058 283.436 20.4433C283.735 21.3808 283.885 22.5136 283.885 23.8418V37.9238H280.428V24.0175C280.428 22.9108 280.278 22.0254 279.979 21.3613C279.692 20.6972 279.282 20.2155 278.748 19.916C278.215 19.6035 277.577 19.4472 276.834 19.4472C275.988 19.4472 275.278 19.636 274.706 20.0136C274.146 20.3912 273.696 20.9121 273.358 21.5761C273.032 22.2402 272.798 23.0019 272.655 23.8613C272.525 24.7077 272.459 25.6061 272.459 26.5566ZM283.846 24.5644L281.541 25.3066C281.528 24.1478 281.672 23.0345 281.971 21.9668C282.271 20.8991 282.713 19.9485 283.299 19.1152C283.898 18.2819 284.64 17.6243 285.526 17.1425C286.411 16.6478 287.44 16.4004 288.612 16.4004C289.575 16.4004 290.428 16.5501 291.17 16.8496C291.913 17.1491 292.538 17.6113 293.045 18.2363C293.566 18.8483 293.957 19.636 294.217 20.5996C294.478 21.5631 294.608 22.709 294.608 24.0371V37.9238H291.151V23.998C291.151 22.8131 291.001 21.8952 290.702 21.2441C290.415 20.58 290.005 20.1178 289.471 19.8574C288.937 19.584 288.299 19.4472 287.557 19.4472C286.958 19.4472 286.424 19.584 285.956 19.8574C285.5 20.1308 285.116 20.5084 284.803 20.9902C284.491 21.459 284.25 21.9993 284.081 22.6113C283.924 23.2233 283.846 23.8743 283.846 24.5644ZM114.92 56.4863H123.768C125.656 56.4863 127.264 56.8118 128.592 57.4629C129.92 58.1139 130.929 59.0774 131.62 60.3535C132.323 61.6295 132.674 63.1985 132.674 65.0605C132.674 66.5449 132.459 67.834 132.03 68.9277C131.613 70.0084 131.014 70.9134 130.233 71.6425C129.465 72.3717 128.534 72.9381 127.44 73.3418L125.858 74.2402H118.534L118.514 69.8847H123.651C124.497 69.8847 125.2 69.6959 125.76 69.3183C126.333 68.9407 126.756 68.4199 127.03 67.7558C127.316 67.0787 127.459 66.304 127.459 65.4316C127.459 64.4811 127.329 63.6673 127.069 62.9902C126.821 62.3001 126.424 61.7728 125.877 61.4082C125.344 61.0436 124.64 60.8613 123.768 60.8613H120.155V84.9238H114.92V56.4863ZM128.006 84.9238L122.674 72.1894H128.163L133.592 84.6504V84.9238H128.006ZM144.823 85.3144C143.416 85.3144 142.166 85.0996 141.073 84.6699C139.992 84.2402 139.074 83.6152 138.319 82.7949C137.564 81.9746 136.984 80.9655 136.581 79.7675C136.19 78.5696 135.995 77.1959 135.995 75.6465V73.7519C135.995 71.9941 136.196 70.4707 136.6 69.1816C137.004 67.8795 137.564 66.8053 138.28 65.959C139.009 65.0996 139.881 64.4616 140.897 64.0449C141.926 63.6152 143.058 63.4004 144.295 63.4004C145.623 63.4004 146.782 63.6217 147.772 64.0644C148.775 64.4941 149.601 65.1386 150.252 65.998C150.903 66.8574 151.385 67.9251 151.698 69.2011C152.023 70.4642 152.186 71.929 152.186 73.5957V75.998H138.241V72.3457H147.264V71.8574C147.238 70.9459 147.127 70.1712 146.932 69.5332C146.737 68.8952 146.424 68.4134 145.995 68.0879C145.578 67.7493 145.005 67.58 144.276 67.58C143.703 67.58 143.208 67.6972 142.791 67.9316C142.375 68.153 142.036 68.5045 141.776 68.9863C141.528 69.455 141.34 70.0866 141.209 70.8808C141.079 71.6621 141.014 72.6191 141.014 73.7519V75.6465C141.014 76.6491 141.105 77.5019 141.288 78.205C141.47 78.8952 141.737 79.4616 142.088 79.9043C142.44 80.334 142.87 80.6465 143.377 80.8418C143.885 81.0371 144.478 81.1347 145.155 81.1347C146.17 81.1347 147.062 80.9524 147.831 80.5879C148.599 80.2103 149.263 79.709 149.823 79.084L151.913 82.1504C151.535 82.6582 151.021 83.1595 150.37 83.6543C149.719 84.136 148.931 84.5332 148.006 84.8457C147.095 85.1582 146.034 85.3144 144.823 85.3144ZM160.643 68.1269V84.9238H155.623V63.791H160.311L160.643 68.1269ZM159.881 73.6152L158.338 73.6347C158.325 72.1634 158.462 70.8027 158.748 69.5527C159.035 68.3027 159.471 67.222 160.057 66.3105C160.643 65.386 161.385 64.6699 162.284 64.1621C163.182 63.6543 164.224 63.4004 165.409 63.4004C166.177 63.4004 166.893 63.5436 167.557 63.83C168.221 64.1035 168.794 64.5397 169.276 65.1386C169.771 65.7246 170.148 66.4928 170.409 67.4433C170.682 68.3808 170.819 69.5071 170.819 70.8222V84.9238H165.819V71.3886C165.819 70.4121 165.715 69.6569 165.506 69.123C165.311 68.5761 165.018 68.192 164.627 67.9707C164.25 67.7363 163.781 67.6191 163.221 67.6191C162.635 67.6191 162.121 67.7754 161.678 68.0879C161.248 68.3873 160.903 68.817 160.643 69.3769C160.383 69.9238 160.187 70.5618 160.057 71.291C159.927 72.0071 159.868 72.7819 159.881 73.6152ZM170.428 72.7363L168.377 73.1074C168.351 71.7662 168.475 70.5097 168.748 69.3379C169.035 68.153 169.465 67.1178 170.038 66.2324C170.61 65.347 171.333 64.6569 172.206 64.1621C173.078 63.6543 174.094 63.4004 175.252 63.4004C176.125 63.4004 176.913 63.5436 177.616 63.83C178.332 64.1165 178.944 64.5787 179.452 65.2168C179.959 65.8418 180.344 66.6621 180.604 67.6777C180.877 68.6803 181.014 69.9043 181.014 71.3496V84.9238H175.995V71.3496C175.995 70.347 175.89 69.5787 175.682 69.0449C175.474 68.498 175.181 68.1269 174.803 67.9316C174.426 67.7233 173.963 67.6191 173.416 67.6191C172.922 67.6191 172.485 67.7558 172.108 68.0293C171.743 68.2897 171.431 68.6543 171.17 69.123C170.923 69.5918 170.734 70.1321 170.604 70.7441C170.487 71.3561 170.428 72.0202 170.428 72.7363ZM184.745 75.1386V73.5957C184.745 71.942 184.946 70.4837 185.35 69.2207C185.754 67.9446 186.327 66.8769 187.069 66.0175C187.811 65.1582 188.696 64.5071 189.725 64.0644C190.767 63.6217 191.919 63.4004 193.182 63.4004C194.471 63.4004 195.63 63.6217 196.659 64.0644C197.7 64.5071 198.592 65.1582 199.334 66.0175C200.09 66.8769 200.663 67.9446 201.053 69.2207C201.457 70.4837 201.659 71.942 201.659 73.5957V75.1386C201.659 76.7923 201.457 78.2506 201.053 79.5136C200.663 80.7767 200.09 81.8444 199.334 82.7168C198.592 83.5761 197.7 84.2272 196.659 84.6699C195.63 85.0996 194.484 85.3144 193.221 85.3144C191.958 85.3144 190.806 85.0996 189.764 84.6699C188.735 84.2272 187.844 83.5761 187.088 82.7168C186.333 81.8444 185.754 80.7767 185.35 79.5136C184.946 78.2506 184.745 76.7923 184.745 75.1386ZM189.764 73.5957V75.1386C189.764 76.1673 189.842 77.0592 189.998 77.8144C190.155 78.5566 190.383 79.1751 190.682 79.6699C190.995 80.1647 191.359 80.5358 191.776 80.7832C192.206 81.0175 192.687 81.1347 193.221 81.1347C193.794 81.1347 194.295 81.0175 194.725 80.7832C195.155 80.5358 195.513 80.1647 195.799 79.6699C196.086 79.1751 196.301 78.5566 196.444 77.8144C196.587 77.0592 196.659 76.1673 196.659 75.1386V73.5957C196.659 72.5931 196.574 71.7142 196.405 70.959C196.248 70.2037 196.021 69.5787 195.721 69.084C195.422 68.5892 195.057 68.2181 194.627 67.9707C194.198 67.7103 193.716 67.58 193.182 67.58C192.661 67.58 192.192 67.7103 191.776 67.9707C191.359 68.2181 190.995 68.5892 190.682 69.084C190.383 69.5787 190.155 70.2037 189.998 70.959C189.842 71.7142 189.764 72.5931 189.764 73.5957ZM211.112 80.9199L214.764 63.791H219.979L214.061 84.9238H210.897L211.112 80.9199ZM208.729 63.791L212.459 80.959L212.596 84.9238H209.432L203.495 63.791H208.729ZM232.069 80.3535V70.1972C232.069 69.5071 231.978 68.9603 231.795 68.5566C231.626 68.153 231.372 67.86 231.034 67.6777C230.695 67.4824 230.278 67.3847 229.784 67.3847C229.25 67.3847 228.801 67.4954 228.436 67.7168C228.071 67.9251 227.798 68.2311 227.616 68.6347C227.446 69.0254 227.362 69.4876 227.362 70.0215H222.342C222.342 69.136 222.518 68.2962 222.87 67.5019C223.221 66.7077 223.729 66.0045 224.393 65.3925C225.057 64.7675 225.858 64.2793 226.795 63.9277C227.733 63.5761 228.781 63.4004 229.94 63.4004C231.32 63.4004 232.544 63.6347 233.612 64.1035C234.692 64.5592 235.539 65.2949 236.151 66.3105C236.776 67.3131 237.088 68.6282 237.088 70.2558V79.9043C237.088 80.985 237.147 81.903 237.264 82.6582C237.394 83.4134 237.583 84.0579 237.831 84.5918V84.9238H232.752C232.531 84.3769 232.362 83.6868 232.245 82.8535C232.127 82.0071 232.069 81.1738 232.069 80.3535ZM232.713 72.0332L232.733 75.1582H230.623C230.038 75.1582 229.517 75.2428 229.061 75.4121C228.618 75.5813 228.241 75.8222 227.928 76.1347C227.616 76.4472 227.381 76.8183 227.225 77.248C227.069 77.6777 226.991 78.1465 226.991 78.6543C226.991 79.2402 227.075 79.7285 227.245 80.1191C227.414 80.4967 227.661 80.7832 227.987 80.9785C228.312 81.1608 228.709 81.2519 229.178 81.2519C229.842 81.2519 230.415 81.1087 230.897 80.8222C231.392 80.5358 231.763 80.1972 232.01 79.8066C232.271 79.403 232.368 79.0254 232.303 78.6738L233.436 80.705C233.306 81.1868 233.104 81.6946 232.831 82.2285C232.557 82.7623 232.206 83.2636 231.776 83.7324C231.359 84.2011 230.845 84.5853 230.233 84.8847C229.634 85.1712 228.924 85.3144 228.104 85.3144C226.945 85.3144 225.897 85.0605 224.959 84.5527C224.035 84.0449 223.306 83.3287 222.772 82.4043C222.238 81.4668 221.971 80.347 221.971 79.0449C221.971 77.9772 222.147 77.0136 222.498 76.1543C222.85 75.2949 223.364 74.5592 224.041 73.9472C224.732 73.3353 225.604 72.8665 226.659 72.541C227.713 72.2024 228.95 72.0332 230.37 72.0332H232.713ZM246.737 54.9238V84.9238H241.717V54.9238H246.737ZM273.006 77.5215C273.006 76.9616 272.948 76.4668 272.831 76.0371C272.726 75.5944 272.518 75.1907 272.206 74.8261C271.893 74.4616 271.444 74.1035 270.858 73.7519C270.272 73.3873 269.517 73.0162 268.592 72.6386C267.498 72.1959 266.463 71.7272 265.487 71.2324C264.51 70.7246 263.638 70.1386 262.87 69.4746C262.101 68.8105 261.496 68.0293 261.053 67.1308C260.623 66.2324 260.409 65.1842 260.409 63.9863C260.409 62.8144 260.617 61.7467 261.034 60.7832C261.463 59.8066 262.069 58.9733 262.85 58.2832C263.631 57.58 264.556 57.0397 265.623 56.6621C266.704 56.2845 267.896 56.0957 269.198 56.0957C271.034 56.0957 272.609 56.4798 273.924 57.248C275.239 58.0162 276.255 59.0579 276.971 60.373C277.687 61.6881 278.045 63.1725 278.045 64.8261H272.831C272.831 63.9668 272.7 63.205 272.44 62.541C272.192 61.8639 271.795 61.3366 271.248 60.959C270.702 60.5813 269.998 60.3925 269.139 60.3925C268.332 60.3925 267.668 60.5553 267.147 60.8808C266.626 61.1933 266.242 61.623 265.995 62.1699C265.747 62.7037 265.623 63.3157 265.623 64.0058C265.623 64.5006 265.734 64.9498 265.956 65.3535C266.19 65.7441 266.509 66.1022 266.913 66.4277C267.316 66.7532 267.804 67.0657 268.377 67.3652C268.963 67.6517 269.614 67.9316 270.331 68.205C271.646 68.6998 272.798 69.2467 273.788 69.8457C274.777 70.4316 275.597 71.0957 276.248 71.8379C276.913 72.567 277.407 73.3938 277.733 74.3183C278.058 75.2428 278.221 76.2975 278.221 77.4824C278.221 78.6543 278.019 79.722 277.616 80.6855C277.212 81.6491 276.626 82.4759 275.858 83.166C275.09 83.8561 274.159 84.3899 273.065 84.7675C271.984 85.1321 270.78 85.3144 269.452 85.3144C268.176 85.3144 266.958 85.1321 265.799 84.7675C264.653 84.3899 263.638 83.8235 262.752 83.0683C261.867 82.3131 261.17 81.3626 260.663 80.2168C260.155 79.0579 259.901 77.6972 259.901 76.1347H265.116C265.116 77.0071 265.213 77.7623 265.409 78.4004C265.604 79.0254 265.897 79.5332 266.288 79.9238C266.678 80.3014 267.147 80.5813 267.694 80.7636C268.241 80.9329 268.859 81.0175 269.549 81.0175C270.37 81.0175 271.034 80.8678 271.541 80.5683C272.049 80.2688 272.42 79.8587 272.655 79.3379C272.889 78.804 273.006 78.1985 273.006 77.5215ZM289.53 81.1347C290.077 81.1347 290.558 81.0241 290.975 80.8027C291.392 80.5683 291.717 80.2037 291.952 79.709C292.186 79.2142 292.31 78.5696 292.323 77.7754H297.049C297.036 79.3118 296.691 80.6465 296.014 81.7793C295.35 82.9121 294.458 83.7845 293.338 84.3965C292.232 85.0084 290.988 85.3144 289.608 85.3144C288.202 85.3144 286.971 85.0931 285.916 84.6504C284.875 84.1946 284.015 83.5371 283.338 82.6777C282.661 81.8053 282.153 80.7441 281.815 79.4941C281.476 78.2441 281.307 76.8183 281.307 75.2168V73.498C281.307 71.8965 281.476 70.4707 281.815 69.2207C282.153 67.9707 282.661 66.916 283.338 66.0566C284.015 65.1842 284.875 64.5267 285.916 64.084C286.958 63.6282 288.182 63.4004 289.588 63.4004C291.086 63.4004 292.388 63.7129 293.495 64.3379C294.601 64.9629 295.467 65.8808 296.092 67.0918C296.717 68.2897 297.036 69.7675 297.049 71.5254H292.323C292.31 70.666 292.199 69.9498 291.991 69.3769C291.782 68.791 291.47 68.3483 291.053 68.0488C290.65 67.7363 290.135 67.58 289.51 67.58C288.833 67.58 288.28 67.7168 287.85 67.9902C287.433 68.2506 287.114 68.6347 286.893 69.1425C286.672 69.6504 286.515 70.2688 286.424 70.998C286.346 71.7272 286.307 72.5605 286.307 73.498V75.2168C286.307 76.1803 286.346 77.0332 286.424 77.7754C286.502 78.5045 286.652 79.123 286.873 79.6308C287.095 80.1256 287.414 80.5032 287.831 80.7636C288.26 81.011 288.827 81.1347 289.53 81.1347ZM305.311 54.9238V84.9238H300.291V54.9238H305.311ZM304.51 73.6152L303.045 73.6347C303.032 72.1634 303.182 70.8027 303.495 69.5527C303.82 68.3027 304.282 67.222 304.881 66.3105C305.48 65.386 306.203 64.6699 307.049 64.1621C307.909 63.6543 308.859 63.4004 309.901 63.4004C310.76 63.4004 311.548 63.5501 312.264 63.8496C312.98 64.136 313.599 64.5983 314.12 65.2363C314.64 65.8743 315.038 66.7077 315.311 67.7363C315.597 68.7519 315.741 69.9954 315.741 71.4668V84.9238H310.721V71.4277C310.721 70.4772 310.623 69.722 310.428 69.1621C310.233 68.6022 309.933 68.205 309.53 67.9707C309.139 67.7363 308.651 67.6191 308.065 67.6191C307.453 67.6191 306.919 67.7754 306.463 68.0879C306.021 68.3873 305.65 68.817 305.35 69.3769C305.064 69.9238 304.849 70.5618 304.706 71.291C304.575 72.0071 304.51 72.7819 304.51 73.6152ZM328.299 85.3144C326.893 85.3144 325.643 85.0996 324.549 84.6699C323.469 84.2402 322.551 83.6152 321.795 82.7949C321.04 81.9746 320.461 80.9655 320.057 79.7675C319.666 78.5696 319.471 77.1959 319.471 75.6465V73.7519C319.471 71.9941 319.673 70.4707 320.077 69.1816C320.48 67.8795 321.04 66.8053 321.756 65.959C322.485 65.0996 323.358 64.4616 324.373 64.0449C325.402 63.6152 326.535 63.4004 327.772 63.4004C329.1 63.4004 330.259 63.6217 331.248 64.0644C332.251 64.4941 333.078 65.1386 333.729 65.998C334.38 66.8574 334.862 67.9251 335.174 69.2011C335.5 70.4642 335.663 71.929 335.663 73.5957V75.998H321.717V72.3457H330.741V71.8574C330.715 70.9459 330.604 70.1712 330.409 69.5332C330.213 68.8952 329.901 68.4134 329.471 68.0879C329.054 67.7493 328.482 67.58 327.752 67.58C327.179 67.58 326.685 67.6972 326.268 67.9316C325.851 68.153 325.513 68.5045 325.252 68.9863C325.005 69.455 324.816 70.0866 324.686 70.8808C324.556 71.6621 324.491 72.6191 324.491 73.7519V75.6465C324.491 76.6491 324.582 77.5019 324.764 78.205C324.946 78.8952 325.213 79.4616 325.565 79.9043C325.916 80.334 326.346 80.6465 326.854 80.8418C327.362 81.0371 327.954 81.1347 328.631 81.1347C329.647 81.1347 330.539 80.9524 331.307 80.5879C332.075 80.2103 332.739 79.709 333.299 79.084L335.389 82.1504C335.011 82.6582 334.497 83.1595 333.846 83.6543C333.195 84.136 332.407 84.5332 331.483 84.8457C330.571 85.1582 329.51 85.3144 328.299 85.3144ZM344.12 68.1269V84.9238H339.1V63.791H343.788L344.12 68.1269ZM343.358 73.6152L341.815 73.6347C341.802 72.1634 341.939 70.8027 342.225 69.5527C342.511 68.3027 342.948 67.222 343.534 66.3105C344.12 65.386 344.862 64.6699 345.76 64.1621C346.659 63.6543 347.7 63.4004 348.885 63.4004C349.653 63.4004 350.37 63.5436 351.034 63.83C351.698 64.1035 352.271 64.5397 352.752 65.1386C353.247 65.7246 353.625 66.4928 353.885 67.4433C354.159 68.3808 354.295 69.5071 354.295 70.8222V84.9238H349.295V71.3886C349.295 70.4121 349.191 69.6569 348.983 69.123C348.788 68.5761 348.495 68.192 348.104 67.9707C347.726 67.7363 347.258 67.6191 346.698 67.6191C346.112 67.6191 345.597 67.7754 345.155 68.0879C344.725 68.3873 344.38 68.817 344.12 69.3769C343.859 69.9238 343.664 70.5618 343.534 71.291C343.403 72.0071 343.345 72.7819 343.358 73.6152ZM353.905 72.7363L351.854 73.1074C351.828 71.7662 351.952 70.5097 352.225 69.3379C352.511 68.153 352.941 67.1178 353.514 66.2324C354.087 65.347 354.81 64.6569 355.682 64.1621C356.554 63.6543 357.57 63.4004 358.729 63.4004C359.601 63.4004 360.389 63.5436 361.092 63.83C361.808 64.1165 362.42 64.5787 362.928 65.2168C363.436 65.8418 363.82 66.6621 364.081 67.6777C364.354 68.6803 364.491 69.9043 364.491 71.3496V84.9238H359.471V71.3496C359.471 70.347 359.367 69.5787 359.159 69.0449C358.95 68.498 358.657 68.1269 358.28 67.9316C357.902 67.7233 357.44 67.6191 356.893 67.6191C356.398 67.6191 355.962 67.7558 355.584 68.0293C355.22 68.2897 354.907 68.6543 354.647 69.123C354.4 69.5918 354.211 70.1321 354.081 70.7441C353.963 71.3561 353.905 72.0202 353.905 72.7363ZM377.166 85.3144C375.76 85.3144 374.51 85.0996 373.416 84.6699C372.336 84.2402 371.418 83.6152 370.663 82.7949C369.907 81.9746 369.328 80.9655 368.924 79.7675C368.534 78.5696 368.338 77.1959 368.338 75.6465V73.7519C368.338 71.9941 368.54 70.4707 368.944 69.1816C369.347 67.8795 369.907 66.8053 370.623 65.959C371.353 65.0996 372.225 64.4616 373.241 64.0449C374.269 63.6152 375.402 63.4004 376.639 63.4004C377.967 63.4004 379.126 63.6217 380.116 64.0644C381.118 64.4941 381.945 65.1386 382.596 65.998C383.247 66.8574 383.729 67.9251 384.041 69.2011C384.367 70.4642 384.53 71.929 384.53 73.5957V75.998H370.584V72.3457H379.608V71.8574C379.582 70.9459 379.471 70.1712 379.276 69.5332C379.081 68.8952 378.768 68.4134 378.338 68.0879C377.922 67.7493 377.349 67.58 376.62 67.58C376.047 67.58 375.552 67.6972 375.135 67.9316C374.719 68.153 374.38 68.5045 374.12 68.9863C373.872 69.455 373.683 70.0866 373.553 70.8808C373.423 71.6621 373.358 72.6191 373.358 73.7519V75.6465C373.358 76.6491 373.449 77.5019 373.631 78.205C373.814 78.8952 374.081 79.4616 374.432 79.9043C374.784 80.334 375.213 80.6465 375.721 80.8418C376.229 81.0371 376.821 81.1347 377.498 81.1347C378.514 81.1347 379.406 80.9524 380.174 80.5879C380.942 80.2103 381.607 79.709 382.166 79.084L384.256 82.1504C383.879 82.6582 383.364 83.1595 382.713 83.6543C382.062 84.136 381.275 84.5332 380.35 84.8457C379.439 85.1582 378.377 85.3144 377.166 85.3144Z" fill="white"></path><line x1="96.0098" y1="9.35046" x2="96.0098" y2="86.4971" stroke="white" stroke-width="3"></line><path d="M37.1271 62.212L36.4487 78.8543L36.3583 79.8492L17.3643 78.5377C16.2789 78.4473 15.2689 77.9724 14.3343 77.1132C13.3997 76.2539 12.6912 75.2665 12.2088 74.151C11.8771 73.337 11.6586 72.5079 11.553 71.6637C11.4475 70.8195 11.5078 69.8397 11.7339 68.7242C11.9601 67.6087 12.141 66.7796 12.2766 66.2369C12.4123 65.6942 12.7364 64.7294 13.2489 63.3426C13.7615 61.9557 14.0479 61.1567 14.1082 60.9457C16.4598 61.3075 24.1328 61.7296 37.1271 62.212ZM19.6255 35.7109L27.7657 52.8507L21.1179 48.6901C19.2185 50.8608 17.5376 53.0391 16.0754 55.2249C14.6132 57.4107 13.5203 59.295 12.7967 60.8779C12.0731 62.4607 11.4777 63.8852 11.0104 65.1515C10.543 66.4178 10.2642 67.3675 10.1737 68.0006L9.99283 68.9503L1.40032 52.8054C0.887786 52.0216 0.616443 51.1774 0.586294 50.2729C0.556145 49.3684 0.646592 48.6599 0.857636 48.1474L1.21943 47.3334C2.27465 45.434 3.99315 42.5999 6.37493 38.8313L0.0436096 34.9421L19.6255 35.7109ZM75.2959 59.0915L66.7938 75.3268C66.432 76.2012 65.8818 76.9021 65.1431 77.4297C64.4045 77.9574 63.7487 78.2664 63.1759 78.3568L62.3619 78.5377C60.2213 78.7488 56.92 78.9297 52.4579 79.0804L52.8197 86.4971L42.4182 69.9L51.9604 53.529L52.277 61.3527C57.4024 61.8351 61.6685 61.9105 65.0753 61.5788C68.4822 61.2472 71.0448 60.7497 72.7633 60.0864L75.2959 59.0915ZM39.7953 17.3048C38.3782 19.2042 34.3835 25.7616 27.811 36.9771L13.4751 28.5203L12.6158 27.9776L22.7911 11.878C23.3941 10.9433 24.2986 10.265 25.5046 9.8429C26.7105 9.42081 27.9165 9.27007 29.1225 9.39066C29.846 9.45096 30.5772 9.63186 31.3158 9.93335C32.0545 10.2348 32.6876 10.5514 33.2152 10.883C33.7428 11.2147 34.3684 11.7121 35.092 12.3754C35.8156 13.0387 36.3583 13.5588 36.72 13.9356C37.0818 14.3125 37.6245 14.908 38.3481 15.722C39.0717 16.536 39.5541 17.0636 39.7953 17.3048ZM69.4168 31.1885L79.0042 47.6047C79.5469 48.7202 79.7353 49.8659 79.5695 51.0417C79.4037 52.2175 78.9891 53.333 78.3259 54.3883C77.9339 54.9912 77.4365 55.549 76.8335 56.0615C76.2305 56.5741 75.6577 56.9962 75.115 57.3278C74.5723 57.6594 73.8412 57.9911 72.9216 58.3227C72.0021 58.6544 71.2936 58.8956 70.7961 59.0463C70.2986 59.197 69.5223 59.4081 68.4671 59.6794C67.4119 59.9508 66.7184 60.1317 66.3868 60.2221C65.3617 58.0514 61.367 51.4789 54.4025 40.5046L68.5575 31.686L69.4168 31.1885ZM62.9498 20.9679L69.3716 17.2144L59.4223 34.0828L40.4736 33.1783L47.3024 29.2891C46.2773 26.6058 45.1467 24.1034 43.9106 21.782C42.6745 19.4605 41.5364 17.5988 40.4962 16.1968C39.4561 14.7949 38.4838 13.5889 37.5793 12.5789C36.6748 11.5689 35.9663 10.868 35.4538 10.476L34.685 9.88812L53.0006 9.93335C53.9352 9.8429 54.8095 10.0012 55.6236 10.4082C56.4376 10.8152 57.0255 11.2448 57.3873 11.6971L57.8847 12.3754C59.0606 14.2145 60.7489 17.0787 62.9498 20.9679Z" fill="white"></path></svg>