<svg xmlns="http://www.w3.org/2000/svg" width="387" height="95" viewBox="0 0 387 95" fill="none"><path d="M128.188 30.5228C128.188 29.8588 128.11 29.2728 127.954 28.765C127.798 28.2442 127.524 27.7754 127.134 27.3588C126.743 26.9421 126.196 26.545 125.493 26.1674C124.79 25.7898 123.898 25.4056 122.817 25.015C121.645 24.5983 120.584 24.1361 119.634 23.6283C118.683 23.1075 117.869 22.515 117.192 21.851C116.528 21.1869 116.014 20.4252 115.649 19.5658C115.285 18.7064 115.103 17.7233 115.103 16.6166C115.103 15.5098 115.291 14.4877 115.669 13.5502C116.06 12.6127 116.606 11.7989 117.31 11.1088C118.026 10.4056 118.885 9.85876 119.888 9.46814C120.89 9.07751 122.01 8.8822 123.247 8.8822C125.096 8.8822 126.652 9.29236 127.915 10.1127C129.191 10.92 130.155 11.9812 130.806 13.2963C131.457 14.5983 131.782 15.9916 131.782 17.476H128.188C128.188 16.4082 128.013 15.4642 127.661 14.6439C127.323 13.8106 126.789 13.1595 126.06 12.6908C125.343 12.209 124.406 11.9681 123.247 11.9681C122.205 11.9681 121.346 12.17 120.669 12.5736C120.005 12.9773 119.51 13.5241 119.185 14.2142C118.872 14.9043 118.716 15.6921 118.716 16.5775C118.716 17.1765 118.82 17.7233 119.028 18.2181C119.237 18.6999 119.556 19.1491 119.985 19.5658C120.428 19.9825 120.975 20.3666 121.626 20.7181C122.29 21.0697 123.071 21.4082 123.97 21.7338C125.363 22.1895 126.554 22.6973 127.544 23.2572C128.533 23.8171 129.341 24.4486 129.966 25.1517C130.591 25.8418 131.047 26.6296 131.333 27.515C131.632 28.3874 131.782 29.377 131.782 30.4838C131.782 31.6426 131.587 32.6908 131.196 33.6283C130.819 34.5658 130.265 35.3666 129.536 36.0306C128.807 36.6947 127.928 37.209 126.899 37.5736C125.871 37.9252 124.712 38.101 123.423 38.101C122.303 38.101 121.203 37.9187 120.122 37.5541C119.054 37.1895 118.084 36.6426 117.212 35.9135C116.339 35.1843 115.643 34.2858 115.122 33.2181C114.601 32.1374 114.341 30.8874 114.341 29.4681H117.935C117.935 30.4447 118.078 31.2845 118.364 31.9877C118.651 32.6778 119.048 33.2507 119.556 33.7064C120.063 34.1622 120.643 34.5007 121.294 34.722C121.958 34.9304 122.668 35.0345 123.423 35.0345C124.464 35.0345 125.337 34.8523 126.04 34.4877C126.756 34.1231 127.29 33.6023 127.642 32.9252C128.006 32.2481 128.188 31.4473 128.188 30.5228ZM139.478 20.64V45.8353H136.02V16.5775H139.165L139.478 20.64ZM151.294 26.1869V28.1595C151.294 29.8262 151.138 31.2845 150.825 32.5345C150.526 33.7715 150.076 34.8067 149.478 35.64C148.892 36.4603 148.169 37.0788 147.31 37.4955C146.45 37.8991 145.467 38.101 144.36 38.101C143.254 38.101 142.29 37.8926 141.47 37.476C140.662 37.0463 139.979 36.4278 139.419 35.6205C138.872 34.8132 138.436 33.8431 138.11 32.7103C137.798 31.5645 137.583 30.2819 137.466 28.8627V25.8549C137.583 24.3575 137.798 23.0163 138.11 21.8314C138.423 20.6335 138.853 19.6179 139.399 18.7845C139.959 17.9382 140.643 17.2937 141.45 16.851C142.27 16.4082 143.228 16.1869 144.321 16.1869C145.454 16.1869 146.45 16.3822 147.31 16.7728C148.182 17.1635 148.911 17.7689 149.497 18.5892C150.096 19.3965 150.545 20.4317 150.845 21.6947C151.144 22.9447 151.294 24.4421 151.294 26.1869ZM147.837 28.1595V26.1869C147.837 25.015 147.746 23.9929 147.563 23.1205C147.394 22.2481 147.121 21.5254 146.743 20.9525C146.366 20.3796 145.89 19.9499 145.317 19.6635C144.744 19.377 144.054 19.2338 143.247 19.2338C142.557 19.2338 141.945 19.377 141.411 19.6635C140.89 19.9499 140.441 20.3405 140.063 20.8353C139.686 21.3171 139.373 21.8705 139.126 22.4955C138.879 23.1075 138.696 23.7455 138.579 24.4095V30.3275C138.8 31.1608 139.093 31.9486 139.458 32.6908C139.823 33.42 140.311 34.0124 140.923 34.4681C141.548 34.9239 142.336 35.1517 143.286 35.1517C144.08 35.1517 144.764 35.0085 145.337 34.722C145.91 34.4356 146.379 34.0059 146.743 33.433C147.121 32.847 147.394 32.1179 147.563 31.2455C147.746 30.3601 147.837 29.3314 147.837 28.1595ZM159.204 19.8978V37.7103H155.747V16.5775H159.087L159.204 19.8978ZM164.458 16.4603L164.478 19.8197C164.191 19.7546 163.931 19.7155 163.696 19.7025C163.475 19.6765 163.214 19.6635 162.915 19.6635C162.264 19.6635 161.691 19.7937 161.196 20.0541C160.714 20.3145 160.298 20.6791 159.946 21.1478C159.595 21.6166 159.315 22.1765 159.106 22.8275C158.898 23.4655 158.755 24.1687 158.677 24.9369L157.778 25.5228C157.778 24.2468 157.876 23.0489 158.071 21.9291C158.28 20.8093 158.599 19.8197 159.028 18.9603C159.458 18.0879 160.005 17.4108 160.669 16.9291C161.346 16.4343 162.153 16.1869 163.091 16.1869C163.299 16.1869 163.553 16.2194 163.853 16.2845C164.165 16.3366 164.367 16.3952 164.458 16.4603ZM177.505 34.097V22.6322C177.505 21.7989 177.375 21.1283 177.114 20.6205C176.867 20.1127 176.489 19.7416 175.981 19.5072C175.487 19.2728 174.862 19.1556 174.106 19.1556C173.377 19.1556 172.746 19.3054 172.212 19.6049C171.691 19.9043 171.287 20.3015 171.001 20.7963C170.728 21.2911 170.591 21.8379 170.591 22.4369H167.134C167.134 21.6817 167.297 20.933 167.622 20.1908C167.961 19.4486 168.442 18.778 169.067 18.1791C169.692 17.5671 170.441 17.0853 171.313 16.7338C172.199 16.3692 173.188 16.1869 174.282 16.1869C175.584 16.1869 176.737 16.4017 177.739 16.8314C178.742 17.2481 179.53 17.9317 180.103 18.8822C180.675 19.8327 180.962 21.0957 180.962 22.6713V33.101C180.962 33.8041 181.014 34.5528 181.118 35.347C181.235 36.1413 181.398 36.8249 181.606 37.3978V37.7103H178.032C177.863 37.2937 177.733 36.7403 177.642 36.0502C177.55 35.347 177.505 34.696 177.505 34.097ZM178.052 24.8978L178.091 27.4369H175.688C174.868 27.4369 174.119 27.528 173.442 27.7103C172.778 27.8926 172.205 28.1595 171.724 28.5111C171.242 28.8497 170.871 29.2728 170.61 29.7806C170.363 30.2885 170.239 30.8679 170.239 31.5189C170.239 32.3653 170.356 33.0424 170.591 33.5502C170.825 34.045 171.177 34.403 171.645 34.6244C172.114 34.8457 172.707 34.9564 173.423 34.9564C174.295 34.9564 175.063 34.7546 175.728 34.351C176.392 33.9473 176.906 33.459 177.27 32.8861C177.648 32.3132 177.824 31.7793 177.798 31.2845L178.56 32.9056C178.507 33.4135 178.338 33.9668 178.052 34.5658C177.778 35.1517 177.394 35.7181 176.899 36.265C176.405 36.7989 175.819 37.2416 175.142 37.5931C174.478 37.9317 173.729 38.101 172.895 38.101C171.672 38.101 170.597 37.8666 169.673 37.3978C168.761 36.9291 168.052 36.239 167.544 35.3275C167.036 34.4161 166.782 33.2898 166.782 31.9486C166.782 30.933 166.958 29.9955 167.31 29.1361C167.661 28.2767 168.182 27.5345 168.872 26.9095C169.562 26.2715 170.428 25.7767 171.47 25.4252C172.524 25.0736 173.742 24.8978 175.122 24.8978H178.052ZM190.923 35.5228L195.63 16.5775H199.302L192.329 40.972C192.16 41.4929 191.932 42.0528 191.645 42.6517C191.372 43.2637 191.02 43.8431 190.591 44.39C190.161 44.9369 189.647 45.3796 189.048 45.7181C188.449 46.0697 187.746 46.2455 186.938 46.2455C186.691 46.2455 186.372 46.2064 185.981 46.1283C185.604 46.0502 185.33 45.9851 185.161 45.933V43.0033C185.239 43.0163 185.363 43.0293 185.532 43.0424C185.701 43.0684 185.825 43.0814 185.903 43.0814C186.58 43.0814 187.153 42.9707 187.622 42.7494C188.104 42.5411 188.514 42.183 188.853 41.6752C189.191 41.1804 189.478 40.4968 189.712 39.6244L190.923 35.5228ZM187.876 16.5775L192.075 32.9838L192.974 36.7924L190.513 38.1205L184.106 16.5775H187.876ZM215.942 9.27283V37.7103H212.349V9.27283H215.942ZM225.532 22.0658V25.1517H215.259V22.0658H225.532ZM227.153 9.27283V12.3588H215.259V9.27283H227.153ZM229.985 28.1595V26.1478C229.985 24.5072 230.194 23.0684 230.61 21.8314C231.027 20.5814 231.606 19.5398 232.349 18.7064C233.091 17.8731 233.957 17.2481 234.946 16.8314C235.936 16.4017 236.997 16.1869 238.13 16.1869C239.289 16.1869 240.363 16.4017 241.353 16.8314C242.342 17.2481 243.208 17.8731 243.95 18.7064C244.705 19.5398 245.291 20.5814 245.708 21.8314C246.125 23.0684 246.333 24.5072 246.333 26.1478V28.1595C246.333 29.8002 246.125 31.2455 245.708 32.4955C245.291 33.7325 244.712 34.7676 243.97 35.601C243.228 36.4343 242.362 37.0593 241.372 37.476C240.382 37.8926 239.315 38.101 238.169 38.101C237.023 38.101 235.955 37.8926 234.966 37.476C233.976 37.0593 233.104 36.4343 232.349 35.601C231.606 34.7676 231.027 33.7325 230.61 32.4955C230.194 31.2455 229.985 29.8002 229.985 28.1595ZM233.442 26.1478V28.1595C233.442 29.3184 233.56 30.334 233.794 31.2064C234.028 32.0788 234.36 32.808 234.79 33.3939C235.22 33.9799 235.721 34.4226 236.294 34.722C236.867 35.0085 237.492 35.1517 238.169 35.1517C238.95 35.1517 239.634 35.0085 240.22 34.722C240.819 34.4226 241.313 33.9799 241.704 33.3939C242.095 32.808 242.388 32.0788 242.583 31.2064C242.778 30.334 242.876 29.3184 242.876 28.1595V26.1478C242.876 24.989 242.759 23.9799 242.524 23.1205C242.29 22.2481 241.958 21.5189 241.528 20.933C241.099 20.334 240.591 19.8913 240.005 19.6049C239.432 19.3054 238.807 19.1556 238.13 19.1556C237.466 19.1556 236.847 19.3054 236.274 19.6049C235.701 19.8913 235.2 20.334 234.77 20.933C234.354 21.5189 234.028 22.2481 233.794 23.1205C233.56 23.9799 233.442 24.989 233.442 26.1478ZM261.138 34.097V22.6322C261.138 21.7989 261.007 21.1283 260.747 20.6205C260.5 20.1127 260.122 19.7416 259.614 19.5072C259.119 19.2728 258.494 19.1556 257.739 19.1556C257.01 19.1556 256.379 19.3054 255.845 19.6049C255.324 19.9043 254.92 20.3015 254.634 20.7963C254.36 21.2911 254.224 21.8379 254.224 22.4369H250.767C250.767 21.6817 250.929 20.933 251.255 20.1908C251.593 19.4486 252.075 18.778 252.7 18.1791C253.325 17.5671 254.074 17.0853 254.946 16.7338C255.832 16.3692 256.821 16.1869 257.915 16.1869C259.217 16.1869 260.369 16.4017 261.372 16.8314C262.375 17.2481 263.162 17.9317 263.735 18.8822C264.308 19.8327 264.595 21.0957 264.595 22.6713V33.101C264.595 33.8041 264.647 34.5528 264.751 35.347C264.868 36.1413 265.031 36.8249 265.239 37.3978V37.7103H261.665C261.496 37.2937 261.366 36.7403 261.274 36.0502C261.183 35.347 261.138 34.696 261.138 34.097ZM261.685 24.8978L261.724 27.4369H259.321C258.501 27.4369 257.752 27.528 257.075 27.7103C256.411 27.8926 255.838 28.1595 255.356 28.5111C254.875 28.8497 254.504 29.2728 254.243 29.7806C253.996 30.2885 253.872 30.8679 253.872 31.5189C253.872 32.3653 253.989 33.0424 254.224 33.5502C254.458 34.045 254.81 34.403 255.278 34.6244C255.747 34.8457 256.339 34.9564 257.056 34.9564C257.928 34.9564 258.696 34.7546 259.36 34.351C260.024 33.9473 260.539 33.459 260.903 32.8861C261.281 32.3132 261.457 31.7793 261.431 31.2845L262.192 32.9056C262.14 33.4135 261.971 33.9668 261.685 34.5658C261.411 35.1517 261.027 35.7181 260.532 36.265C260.037 36.7989 259.451 37.2416 258.774 37.5931C258.11 37.9317 257.362 38.101 256.528 38.101C255.304 38.101 254.23 37.8666 253.306 37.3978C252.394 36.9291 251.685 36.239 251.177 35.3275C250.669 34.4161 250.415 33.2898 250.415 31.9486C250.415 30.933 250.591 29.9955 250.942 29.1361C251.294 28.2767 251.815 27.5345 252.505 26.9095C253.195 26.2715 254.061 25.7767 255.103 25.4252C256.157 25.0736 257.375 24.8978 258.755 24.8978H261.685ZM273.423 20.7767V37.7103H269.985V16.5775H273.228L273.423 20.7767ZM272.72 26.3431L271.118 26.2845C271.105 24.8392 271.248 23.5046 271.548 22.2806C271.847 21.0437 272.297 19.9694 272.895 19.058C273.507 18.1465 274.269 17.4434 275.181 16.9486C276.105 16.4408 277.179 16.1869 278.403 16.1869C279.211 16.1869 279.959 16.3301 280.649 16.6166C281.353 16.89 281.964 17.3262 282.485 17.9252C283.006 18.5241 283.41 19.2924 283.696 20.2299C283.996 21.1674 284.145 22.3002 284.145 23.6283V37.7103H280.688V23.8041C280.688 22.6973 280.539 21.8119 280.239 21.1478C279.953 20.4838 279.543 20.002 279.009 19.7025C278.475 19.39 277.837 19.2338 277.095 19.2338C276.248 19.2338 275.539 19.4226 274.966 19.8002C274.406 20.1778 273.957 20.6986 273.618 21.3627C273.293 22.0267 273.058 22.7885 272.915 23.6478C272.785 24.4942 272.72 25.3926 272.72 26.3431ZM284.106 24.351L281.802 25.0931C281.789 23.9343 281.932 22.821 282.231 21.7533C282.531 20.6856 282.974 19.7351 283.56 18.9017C284.158 18.0684 284.901 17.4108 285.786 16.9291C286.672 16.4343 287.7 16.1869 288.872 16.1869C289.836 16.1869 290.688 16.3366 291.431 16.6361C292.173 16.9356 292.798 17.3978 293.306 18.0228C293.826 18.6348 294.217 19.4226 294.478 20.3861C294.738 21.3497 294.868 22.4955 294.868 23.8236V37.7103H291.411V23.7845C291.411 22.5997 291.261 21.6817 290.962 21.0306C290.675 20.3666 290.265 19.9043 289.731 19.6439C289.198 19.3705 288.56 19.2338 287.817 19.2338C287.218 19.2338 286.685 19.3705 286.216 19.6439C285.76 19.9174 285.376 20.295 285.063 20.7767C284.751 21.2455 284.51 21.7858 284.341 22.3978C284.185 23.0098 284.106 23.6608 284.106 24.351ZM115.181 56.2728H124.028C125.916 56.2728 127.524 56.5983 128.853 57.2494C130.181 57.9004 131.19 58.864 131.88 60.14C132.583 61.4161 132.935 62.9851 132.935 64.847C132.935 66.3314 132.72 67.6205 132.29 68.7142C131.873 69.795 131.274 70.6999 130.493 71.4291C129.725 72.1582 128.794 72.7247 127.7 73.1283L126.118 74.0267H118.794L118.774 69.6713H123.911C124.757 69.6713 125.461 69.4825 126.02 69.1049C126.593 68.7273 127.017 68.2064 127.29 67.5424C127.576 66.8653 127.72 66.0905 127.72 65.2181C127.72 64.2676 127.589 63.4538 127.329 62.7767C127.082 62.0866 126.685 61.5593 126.138 61.1947C125.604 60.8301 124.901 60.6478 124.028 60.6478H120.415V84.7103H115.181V56.2728ZM128.267 84.7103L122.935 71.976H128.423L133.853 84.4369V84.7103H128.267ZM145.083 85.101C143.677 85.101 142.427 84.8861 141.333 84.4564C140.252 84.0267 139.334 83.4017 138.579 82.5814C137.824 81.7611 137.244 80.752 136.841 79.5541C136.45 78.3562 136.255 76.9825 136.255 75.433V73.5385C136.255 71.7806 136.457 70.2572 136.86 68.9681C137.264 67.6661 137.824 66.5918 138.54 65.7455C139.269 64.8861 140.142 64.2481 141.157 63.8314C142.186 63.4017 143.319 63.1869 144.556 63.1869C145.884 63.1869 147.043 63.4082 148.032 63.851C149.035 64.2806 149.862 64.9252 150.513 65.7845C151.164 66.6439 151.645 67.7116 151.958 68.9877C152.283 70.2507 152.446 71.7155 152.446 73.3822V75.7845H138.501V72.1322H147.524V71.6439C147.498 70.7325 147.388 69.9577 147.192 69.3197C146.997 68.6817 146.685 68.1999 146.255 67.8744C145.838 67.5358 145.265 67.3666 144.536 67.3666C143.963 67.3666 143.468 67.4838 143.052 67.7181C142.635 67.9395 142.297 68.2911 142.036 68.7728C141.789 69.2416 141.6 69.8731 141.47 70.6674C141.339 71.4486 141.274 72.4056 141.274 73.5385V75.433C141.274 76.4356 141.366 77.2885 141.548 77.9916C141.73 78.6817 141.997 79.2481 142.349 79.6908C142.7 80.1205 143.13 80.433 143.638 80.6283C144.145 80.8236 144.738 80.9213 145.415 80.9213C146.431 80.9213 147.323 80.739 148.091 80.3744C148.859 79.9968 149.523 79.4955 150.083 78.8705L152.173 81.9369C151.795 82.4447 151.281 82.946 150.63 83.4408C149.979 83.9226 149.191 84.3197 148.267 84.6322C147.355 84.9447 146.294 85.101 145.083 85.101ZM160.903 67.9135V84.7103H155.884V63.5775H160.571L160.903 67.9135ZM160.142 73.4017L158.599 73.4213C158.586 71.9499 158.722 70.5892 159.009 69.3392C159.295 68.0892 159.731 67.0085 160.317 66.097C160.903 65.1726 161.645 64.4564 162.544 63.9486C163.442 63.4408 164.484 63.1869 165.669 63.1869C166.437 63.1869 167.153 63.3301 167.817 63.6166C168.481 63.89 169.054 64.3262 169.536 64.9252C170.031 65.5111 170.408 66.2793 170.669 67.2299C170.942 68.1674 171.079 69.2937 171.079 70.6088V84.7103H166.079V71.1752C166.079 70.1986 165.975 69.4434 165.767 68.9095C165.571 68.3627 165.278 67.9786 164.888 67.7572C164.51 67.5228 164.041 67.4056 163.481 67.4056C162.895 67.4056 162.381 67.5619 161.938 67.8744C161.509 68.1739 161.164 68.6036 160.903 69.1635C160.643 69.7103 160.448 70.3483 160.317 71.0775C160.187 71.7937 160.129 72.5684 160.142 73.4017ZM170.688 72.5228L168.638 72.8939C168.612 71.5528 168.735 70.2963 169.009 69.1244C169.295 67.9395 169.725 66.9043 170.298 66.0189C170.871 65.1335 171.593 64.4434 172.466 63.9486C173.338 63.4408 174.354 63.1869 175.513 63.1869C176.385 63.1869 177.173 63.3301 177.876 63.6166C178.592 63.903 179.204 64.3653 179.712 65.0033C180.22 65.6283 180.604 66.4486 180.864 67.4642C181.138 68.4668 181.274 69.6908 181.274 71.1361V84.7103H176.255V71.1361C176.255 70.1335 176.151 69.3653 175.942 68.8314C175.734 68.2845 175.441 67.9135 175.063 67.7181C174.686 67.5098 174.224 67.4056 173.677 67.4056C173.182 67.4056 172.746 67.5424 172.368 67.8158C172.004 68.0762 171.691 68.4408 171.431 68.9095C171.183 69.3783 170.994 69.9187 170.864 70.5306C170.747 71.1426 170.688 71.8067 170.688 72.5228ZM185.005 74.9252V73.3822C185.005 71.7286 185.207 70.2702 185.61 69.0072C186.014 67.7312 186.587 66.6635 187.329 65.8041C188.071 64.9447 188.957 64.2937 189.985 63.851C191.027 63.4082 192.179 63.1869 193.442 63.1869C194.731 63.1869 195.89 63.4082 196.919 63.851C197.961 64.2937 198.853 64.9447 199.595 65.8041C200.35 66.6635 200.923 67.7312 201.313 69.0072C201.717 70.2702 201.919 71.7286 201.919 73.3822V74.9252C201.919 76.5788 201.717 78.0372 201.313 79.3002C200.923 80.5632 200.35 81.6309 199.595 82.5033C198.853 83.3627 197.961 84.0137 196.919 84.4564C195.89 84.8861 194.744 85.101 193.481 85.101C192.218 85.101 191.066 84.8861 190.024 84.4564C188.996 84.0137 188.104 83.3627 187.349 82.5033C186.593 81.6309 186.014 80.5632 185.61 79.3002C185.207 78.0372 185.005 76.5788 185.005 74.9252ZM190.024 73.3822V74.9252C190.024 75.9538 190.103 76.8457 190.259 77.601C190.415 78.3431 190.643 78.9616 190.942 79.4564C191.255 79.9512 191.619 80.3223 192.036 80.5697C192.466 80.8041 192.948 80.9213 193.481 80.9213C194.054 80.9213 194.556 80.8041 194.985 80.5697C195.415 80.3223 195.773 79.9512 196.06 79.4564C196.346 78.9616 196.561 78.3431 196.704 77.601C196.847 76.8457 196.919 75.9538 196.919 74.9252V73.3822C196.919 72.3796 196.834 71.5007 196.665 70.7455C196.509 69.9903 196.281 69.3653 195.981 68.8705C195.682 68.3757 195.317 68.0046 194.888 67.7572C194.458 67.4968 193.976 67.3666 193.442 67.3666C192.922 67.3666 192.453 67.4968 192.036 67.7572C191.619 68.0046 191.255 68.3757 190.942 68.8705C190.643 69.3653 190.415 69.9903 190.259 70.7455C190.103 71.5007 190.024 72.3796 190.024 73.3822ZM211.372 80.7064L215.024 63.5775H220.239L214.321 84.7103H211.157L211.372 80.7064ZM208.989 63.5775L212.72 80.7455L212.856 84.7103H209.692L203.755 63.5775H208.989ZM232.329 80.14V69.9838C232.329 69.2937 232.238 68.7468 232.056 68.3431C231.886 67.9395 231.632 67.6465 231.294 67.4642C230.955 67.2689 230.539 67.1713 230.044 67.1713C229.51 67.1713 229.061 67.2819 228.696 67.5033C228.332 67.7116 228.058 68.0176 227.876 68.4213C227.707 68.8119 227.622 69.2741 227.622 69.808H222.603C222.603 68.9226 222.778 68.0827 223.13 67.2885C223.481 66.4942 223.989 65.7911 224.653 65.1791C225.317 64.5541 226.118 64.0658 227.056 63.7142C227.993 63.3627 229.041 63.1869 230.2 63.1869C231.58 63.1869 232.804 63.4213 233.872 63.89C234.953 64.3457 235.799 65.0814 236.411 66.097C237.036 67.0997 237.349 68.4148 237.349 70.0424V79.6908C237.349 80.7715 237.407 81.6895 237.524 82.4447C237.655 83.1999 237.843 83.8444 238.091 84.3783V84.7103H233.013C232.791 84.1635 232.622 83.4733 232.505 82.64C232.388 81.7937 232.329 80.9603 232.329 80.14ZM232.974 71.8197L232.993 74.9447H230.884C230.298 74.9447 229.777 75.0293 229.321 75.1986C228.879 75.3679 228.501 75.6088 228.188 75.9213C227.876 76.2338 227.642 76.6049 227.485 77.0345C227.329 77.4642 227.251 77.933 227.251 78.4408C227.251 79.0267 227.336 79.515 227.505 79.9056C227.674 80.2832 227.922 80.5697 228.247 80.765C228.573 80.9473 228.97 81.0385 229.438 81.0385C230.103 81.0385 230.675 80.8952 231.157 80.6088C231.652 80.3223 232.023 79.9838 232.27 79.5931C232.531 79.1895 232.629 78.8119 232.563 78.4603L233.696 80.4916C233.566 80.9733 233.364 81.4812 233.091 82.015C232.817 82.5489 232.466 83.0502 232.036 83.5189C231.619 83.9877 231.105 84.3718 230.493 84.6713C229.894 84.9577 229.185 85.101 228.364 85.101C227.205 85.101 226.157 84.847 225.22 84.3392C224.295 83.8314 223.566 83.1153 223.032 82.1908C222.498 81.2533 222.231 80.1335 222.231 78.8314C222.231 77.7637 222.407 76.8002 222.759 75.9408C223.11 75.0814 223.625 74.3457 224.302 73.7338C224.992 73.1218 225.864 72.653 226.919 72.3275C227.974 71.989 229.211 71.8197 230.63 71.8197H232.974ZM246.997 54.7103V84.7103H241.978V54.7103H246.997ZM273.267 77.308C273.267 76.7481 273.208 76.2533 273.091 75.8236C272.987 75.3809 272.778 74.9773 272.466 74.6127C272.153 74.2481 271.704 73.89 271.118 73.5385C270.532 73.1739 269.777 72.8028 268.853 72.4252C267.759 71.9825 266.724 71.5137 265.747 71.0189C264.77 70.5111 263.898 69.9252 263.13 69.2611C262.362 68.597 261.756 67.8158 261.313 66.9174C260.884 66.0189 260.669 64.9707 260.669 63.7728C260.669 62.601 260.877 61.5332 261.294 60.5697C261.724 59.5931 262.329 58.7598 263.11 58.0697C263.892 57.3666 264.816 56.8262 265.884 56.4486C266.964 56.071 268.156 55.8822 269.458 55.8822C271.294 55.8822 272.869 56.2663 274.185 57.0345C275.5 57.8028 276.515 58.8444 277.231 60.1595C277.948 61.4747 278.306 62.959 278.306 64.6127H273.091C273.091 63.7533 272.961 62.9916 272.7 62.3275C272.453 61.6504 272.056 61.1231 271.509 60.7455C270.962 60.3679 270.259 60.1791 269.399 60.1791C268.592 60.1791 267.928 60.3418 267.407 60.6674C266.886 60.9799 266.502 61.4095 266.255 61.9564C266.007 62.4903 265.884 63.1023 265.884 63.7924C265.884 64.2872 265.994 64.7364 266.216 65.14C266.45 65.5306 266.769 65.8887 267.173 66.2142C267.576 66.5398 268.065 66.8523 268.638 67.1517C269.224 67.4382 269.875 67.7181 270.591 67.9916C271.906 68.4864 273.058 69.0332 274.048 69.6322C275.037 70.2181 275.858 70.8822 276.509 71.6244C277.173 72.3536 277.668 73.1804 277.993 74.1049C278.319 75.0293 278.481 76.084 278.481 77.2689C278.481 78.4408 278.28 79.5085 277.876 80.472C277.472 81.4356 276.886 82.2624 276.118 82.9525C275.35 83.6426 274.419 84.1765 273.325 84.5541C272.244 84.9187 271.04 85.101 269.712 85.101C268.436 85.101 267.218 84.9187 266.06 84.5541C264.914 84.1765 263.898 83.6101 263.013 82.8549C262.127 82.0997 261.431 81.1491 260.923 80.0033C260.415 78.8444 260.161 77.4838 260.161 75.9213H265.376C265.376 76.7937 265.474 77.5489 265.669 78.1869C265.864 78.8119 266.157 79.3197 266.548 79.7103C266.938 80.0879 267.407 80.3679 267.954 80.5502C268.501 80.7194 269.119 80.8041 269.81 80.8041C270.63 80.8041 271.294 80.6543 271.802 80.3549C272.31 80.0554 272.681 79.6452 272.915 79.1244C273.149 78.5905 273.267 77.9851 273.267 77.308ZM289.79 80.9213C290.337 80.9213 290.819 80.8106 291.235 80.5892C291.652 80.3549 291.978 79.9903 292.212 79.4955C292.446 79.0007 292.57 78.3562 292.583 77.5619H297.31C297.297 79.0983 296.951 80.433 296.274 81.5658C295.61 82.6986 294.718 83.571 293.599 84.183C292.492 84.795 291.248 85.101 289.868 85.101C288.462 85.101 287.231 84.8796 286.177 84.4369C285.135 83.9812 284.276 83.3236 283.599 82.4642C282.922 81.5918 282.414 80.5306 282.075 79.2806C281.737 78.0306 281.567 76.6049 281.567 75.0033V73.2845C281.567 71.683 281.737 70.2572 282.075 69.0072C282.414 67.7572 282.922 66.7025 283.599 65.8431C284.276 64.9707 285.135 64.3132 286.177 63.8705C287.218 63.4148 288.442 63.1869 289.849 63.1869C291.346 63.1869 292.648 63.4994 293.755 64.1244C294.862 64.7494 295.728 65.6674 296.353 66.8783C296.978 68.0762 297.297 69.5541 297.31 71.3119H292.583C292.57 70.4525 292.459 69.7364 292.251 69.1635C292.043 68.5775 291.73 68.1348 291.313 67.8353C290.91 67.5228 290.395 67.3666 289.77 67.3666C289.093 67.3666 288.54 67.5033 288.11 67.7767C287.694 68.0372 287.375 68.4213 287.153 68.9291C286.932 69.4369 286.776 70.0554 286.685 70.7845C286.606 71.5137 286.567 72.347 286.567 73.2845V75.0033C286.567 75.9668 286.606 76.8197 286.685 77.5619C286.763 78.2911 286.912 78.9095 287.134 79.4174C287.355 79.9122 287.674 80.2898 288.091 80.5502C288.52 80.7976 289.087 80.9213 289.79 80.9213ZM305.571 54.7103V84.7103H300.552V54.7103H305.571ZM304.77 73.4017L303.306 73.4213C303.293 71.9499 303.442 70.5892 303.755 69.3392C304.08 68.0892 304.543 67.0085 305.142 66.097C305.741 65.1726 306.463 64.4564 307.31 63.9486C308.169 63.4408 309.119 63.1869 310.161 63.1869C311.02 63.1869 311.808 63.3366 312.524 63.6361C313.241 63.9226 313.859 64.3848 314.38 65.0228C314.901 65.6608 315.298 66.4942 315.571 67.5228C315.858 68.5385 316.001 69.7819 316.001 71.2533V84.7103H310.981V71.2142C310.981 70.2637 310.884 69.5085 310.688 68.9486C310.493 68.3887 310.194 67.9916 309.79 67.7572C309.399 67.5228 308.911 67.4056 308.325 67.4056C307.713 67.4056 307.179 67.5619 306.724 67.8744C306.281 68.1739 305.91 68.6036 305.61 69.1635C305.324 69.7103 305.109 70.3483 304.966 71.0775C304.836 71.7937 304.77 72.5684 304.77 73.4017ZM328.56 85.101C327.153 85.101 325.903 84.8861 324.81 84.4564C323.729 84.0267 322.811 83.4017 322.056 82.5814C321.3 81.7611 320.721 80.752 320.317 79.5541C319.927 78.3562 319.731 76.9825 319.731 75.433V73.5385C319.731 71.7806 319.933 70.2572 320.337 68.9681C320.741 67.6661 321.3 66.5918 322.017 65.7455C322.746 64.8861 323.618 64.2481 324.634 63.8314C325.662 63.4017 326.795 63.1869 328.032 63.1869C329.36 63.1869 330.519 63.4082 331.509 63.851C332.511 64.2806 333.338 64.9252 333.989 65.7845C334.64 66.6439 335.122 67.7116 335.435 68.9877C335.76 70.2507 335.923 71.7155 335.923 73.3822V75.7845H321.978V72.1322H331.001V71.6439C330.975 70.7325 330.864 69.9577 330.669 69.3197C330.474 68.6817 330.161 68.1999 329.731 67.8744C329.315 67.5358 328.742 67.3666 328.013 67.3666C327.44 67.3666 326.945 67.4838 326.528 67.7181C326.112 67.9395 325.773 68.2911 325.513 68.7728C325.265 69.2416 325.076 69.8731 324.946 70.6674C324.816 71.4486 324.751 72.4056 324.751 73.5385V75.433C324.751 76.4356 324.842 77.2885 325.024 77.9916C325.207 78.6817 325.474 79.2481 325.825 79.6908C326.177 80.1205 326.606 80.433 327.114 80.6283C327.622 80.8236 328.214 80.9213 328.892 80.9213C329.907 80.9213 330.799 80.739 331.567 80.3744C332.336 79.9968 333 79.4955 333.56 78.8705L335.649 81.9369C335.272 82.4447 334.757 82.946 334.106 83.4408C333.455 83.9226 332.668 84.3197 331.743 84.6322C330.832 84.9447 329.77 85.101 328.56 85.101ZM344.38 67.9135V84.7103H339.36V63.5775H344.048L344.38 67.9135ZM343.618 73.4017L342.075 73.4213C342.062 71.9499 342.199 70.5892 342.485 69.3392C342.772 68.0892 343.208 67.0085 343.794 66.097C344.38 65.1726 345.122 64.4564 346.02 63.9486C346.919 63.4408 347.961 63.1869 349.145 63.1869C349.914 63.1869 350.63 63.3301 351.294 63.6166C351.958 63.89 352.531 64.3262 353.013 64.9252C353.507 65.5111 353.885 66.2793 354.145 67.2299C354.419 68.1674 354.556 69.2937 354.556 70.6088V84.7103H349.556V71.1752C349.556 70.1986 349.451 69.4434 349.243 68.9095C349.048 68.3627 348.755 67.9786 348.364 67.7572C347.987 67.5228 347.518 67.4056 346.958 67.4056C346.372 67.4056 345.858 67.5619 345.415 67.8744C344.985 68.1739 344.64 68.6036 344.38 69.1635C344.119 69.7103 343.924 70.3483 343.794 71.0775C343.664 71.7937 343.605 72.5684 343.618 73.4017ZM354.165 72.5228L352.114 72.8939C352.088 71.5528 352.212 70.2963 352.485 69.1244C352.772 67.9395 353.201 66.9043 353.774 66.0189C354.347 65.1335 355.07 64.4434 355.942 63.9486C356.815 63.4408 357.83 63.1869 358.989 63.1869C359.862 63.1869 360.649 63.3301 361.353 63.6166C362.069 63.903 362.681 64.3653 363.188 65.0033C363.696 65.6283 364.08 66.4486 364.341 67.4642C364.614 68.4668 364.751 69.6908 364.751 71.1361V84.7103H359.731V71.1361C359.731 70.1335 359.627 69.3653 359.419 68.8314C359.211 68.2845 358.918 67.9135 358.54 67.7181C358.162 67.5098 357.7 67.4056 357.153 67.4056C356.658 67.4056 356.222 67.5424 355.845 67.8158C355.48 68.0762 355.168 68.4408 354.907 68.9095C354.66 69.3783 354.471 69.9187 354.341 70.5306C354.224 71.1426 354.165 71.8067 354.165 72.5228ZM377.427 85.101C376.02 85.101 374.77 84.8861 373.677 84.4564C372.596 84.0267 371.678 83.4017 370.923 82.5814C370.168 81.7611 369.588 80.752 369.185 79.5541C368.794 78.3562 368.599 76.9825 368.599 75.433V73.5385C368.599 71.7806 368.8 70.2572 369.204 68.9681C369.608 67.6661 370.168 66.5918 370.884 65.7455C371.613 64.8861 372.485 64.2481 373.501 63.8314C374.53 63.4017 375.662 63.1869 376.899 63.1869C378.228 63.1869 379.386 63.4082 380.376 63.851C381.379 64.2806 382.205 64.9252 382.856 65.7845C383.507 66.6439 383.989 67.7116 384.302 68.9877C384.627 70.2507 384.79 71.7155 384.79 73.3822V75.7845H370.845V72.1322H379.868V71.6439C379.842 70.7325 379.731 69.9577 379.536 69.3197C379.341 68.6817 379.028 68.1999 378.599 67.8744C378.182 67.5358 377.609 67.3666 376.88 67.3666C376.307 67.3666 375.812 67.4838 375.395 67.7181C374.979 67.9395 374.64 68.2911 374.38 68.7728C374.132 69.2416 373.944 69.8731 373.813 70.6674C373.683 71.4486 373.618 72.4056 373.618 73.5385V75.433C373.618 76.4356 373.709 77.2885 373.892 77.9916C374.074 78.6817 374.341 79.2481 374.692 79.6908C375.044 80.1205 375.474 80.433 375.981 80.6283C376.489 80.8236 377.082 80.9213 377.759 80.9213C378.774 80.9213 379.666 80.739 380.435 80.3744C381.203 79.9968 381.867 79.4955 382.427 78.8705L384.517 81.9369C384.139 82.4447 383.625 82.946 382.974 83.4408C382.323 83.9226 381.535 84.3197 380.61 84.6322C379.699 84.9447 378.638 85.101 377.427 85.101Z" fill="black"></path><line x1="96.2701" y1="9.13702" x2="96.2701" y2="86.2837" stroke="black" stroke-width="3"></line><path d="M37.3874 61.9985L36.709 78.6408L36.6186 79.6358L17.6246 78.3243C16.5392 78.2338 15.5292 77.759 14.5946 76.8997C13.66 76.0405 12.9515 75.0531 12.4691 73.9376C12.1374 73.1236 11.9189 72.2945 11.8133 71.4503C11.7078 70.6061 11.7681 69.6263 11.9942 68.5107C12.2204 67.3952 12.4013 66.5661 12.5369 66.0234C12.6726 65.4807 12.9967 64.516 13.5092 63.1291C14.0218 61.7423 14.3082 60.9433 14.3685 60.7323C16.7201 61.094 24.3931 61.5161 37.3874 61.9985ZM19.8858 35.4974L28.026 52.6372L21.3782 48.4766C19.4788 50.6474 17.7979 52.8256 16.3357 55.0115C14.8735 57.1973 13.7806 59.0816 13.057 60.6644C12.3334 62.2473 11.738 63.6718 11.2707 64.9381C10.8033 66.2043 10.5245 67.154 10.434 67.7872L10.2531 68.7369L1.66062 52.592C1.14809 51.8081 0.876743 50.9639 0.846594 50.0595C0.816445 49.155 0.906892 48.4465 1.11794 47.9339L1.47973 47.1199C2.53495 45.2205 4.25345 42.3865 6.63523 38.6179L0.303909 34.7286L19.8858 35.4974ZM75.5562 58.8781L67.0541 75.1134C66.6923 75.9877 66.1421 76.6887 65.4034 77.2163C64.6648 77.7439 64.009 78.0529 63.4362 78.1434L62.6222 78.3243C60.4816 78.5353 57.1803 78.7162 52.7182 78.867L53.08 86.2837L42.6785 69.6866L52.2207 53.3156L52.5373 61.1393C57.6627 61.6217 61.9288 61.697 65.3356 61.3654C68.7425 61.0337 71.3051 60.5363 73.0236 59.873L75.5562 58.8781ZM40.0556 17.0914C38.6385 18.9908 34.6438 25.5482 28.0713 36.7637L13.7354 28.3069L12.8761 27.7642L23.0514 11.6645C23.6544 10.7299 24.5589 10.0515 25.7649 9.62946C26.9708 9.20737 28.1768 9.05663 29.3828 9.17722C30.1063 9.23752 30.8375 9.41842 31.5761 9.71991C32.3148 10.0214 32.9479 10.338 33.4755 10.6696C34.0031 11.0012 34.6287 11.4987 35.3523 12.162C36.0759 12.8253 36.6186 13.3453 36.9803 13.7222C37.3421 14.0991 37.8848 14.6945 38.6084 15.5085C39.332 16.3226 39.8144 16.8502 40.0556 17.0914ZM69.6771 30.9751L79.2645 47.3913C79.8072 48.5068 79.9956 49.6524 79.8298 50.8283C79.664 52.0041 79.2494 53.1196 78.5862 54.1748C78.1942 54.7778 77.6968 55.3356 77.0938 55.8481C76.4908 56.3606 75.918 56.7827 75.3753 57.1144C74.8326 57.446 74.1015 57.7776 73.1819 58.1093C72.2624 58.4409 71.5539 58.6821 71.0564 58.8329C70.5589 58.9836 69.7826 59.1947 68.7274 59.466C67.6722 59.7373 66.9787 59.9182 66.6471 60.0087C65.622 57.8379 61.6273 51.2654 54.6628 40.2911L68.8178 31.4725L69.6771 30.9751ZM63.2101 20.7545L69.6319 17.0009L59.6826 33.8694L40.7339 32.9649L47.5627 29.0757C46.5376 26.3924 45.407 23.89 44.1709 21.5685C42.9348 19.247 41.7967 17.3853 40.7565 15.9834C39.7164 14.5815 38.7441 13.3755 37.8396 12.3655C36.9351 11.3555 36.2266 10.6545 35.7141 10.2626L34.9453 9.67468L53.2609 9.71991C54.1955 9.62946 55.0698 9.78774 55.8839 10.1948C56.6979 10.6018 57.2858 11.0314 57.6476 11.4836L58.145 12.162C59.3209 14.0011 61.0092 16.8653 63.2101 20.7545Z" fill="#00703C"></path></svg>